/* XPM */
static char *out[] = {
/* columns rows colors chars-per-pixel */
"50 50 150 2 ",
"   c #12CDB7",
".  c #13CDBC",
"X  c #19CEBB",
"o  c #0FD1BD",
"O  c #14D3BD",
"+  c #19D1BC",
"@  c #12D8BF",
"#  c #16CEC1",
"$  c #18CEC1",
"%  c #0FD4C2",
"&  c #13D4C3",
"*  c #19D5C2",
"=  c #14D9C4",
"-  c #1BD9C4",
";  c #11D7C8",
":  c #15DCCA",
">  c #19DDCC",
",  c #14DCD0",
"<  c #15E0CA",
"1  c #1AE1CE",
"2  c #1FEED4",
"3  c #16EDDE",
"4  c #1EEEDC",
"5  c #1EF2DC",
"6  c #23EFD6",
"7  c #2CEED5",
"8  c #2DE6D8",
"9  c #23EEDC",
"0  c #2AEDDC",
"q  c #31EFD3",
"w  c #32E6D9",
"e  c #32EADA",
"r  c #39ECDE",
"t  c #25F2D5",
"y  c #2CF2D5",
"u  c #24F2DB",
"i  c #2BF3DC",
"p  c #21F8DF",
"a  c #33F4D5",
"s  c #3CF6D6",
"d  c #36F8D6",
"f  c #3DF8D5",
"g  c #34F5DA",
"h  c #3CF6D9",
"j  c #35F8D9",
"k  c #3EF8D9",
"l  c #15EEE6",
"z  c #1CECE5",
"x  c #16ECE8",
"c  c #1BECE9",
"v  c #1CF2E0",
"b  c #1EF0E9",
"n  c #22EEE5",
"m  c #2AEFE0",
"M  c #22EEE9",
"N  c #3DEFE1",
"B  c #23F3E2",
"V  c #2CF3E3",
"C  c #27FBE5",
"Z  c #2BF9E5",
"A  c #24F2EB",
"S  c #2BF4E9",
"D  c #2FF8EA",
"F  c #33F4E3",
"G  c #3AF6E4",
"H  c #37F8E7",
"J  c #3CF9E5",
"K  c #31F4E8",
"L  c #3DFAEA",
"P  c #41F6D6",
"I  c #4AF5D7",
"U  c #42F9D4",
"Y  c #4CFBD7",
"T  c #41F7D9",
"R  c #4AF6D8",
"E  c #43F9DA",
"W  c #4CFBDA",
"Q  c #52FCD7",
"!  c #5EF4DD",
"~  c #53FBDC",
"^  c #5AFCDC",
"/  c #66F5DB",
"(  c #6AF7DE",
")  c #64FCDE",
"_  c #6AFDDF",
"`  c #71F1D9",
"'  c #71FEDF",
"]  c #4EF7E6",
"[  c #44F8E3",
"{  c #4DF9E1",
"}  c #44F1E9",
"|  c #4CF3EC",
" . c #43FBEE",
".. c #4DFBEC",
"X. c #52F7E6",
"o. c #5BF7E3",
"O. c #54FBE2",
"+. c #5BFBE1",
"@. c #5FF7E9",
"#. c #56FBEC",
"$. c #5BFBEB",
"%. c #4CFBF1",
"&. c #56F7F0",
"*. c #5BF7F1",
"=. c #52FBF2",
"-. c #5BFCF2",
";. c #65FCE3",
":. c #6AFCE4",
">. c #61F5EA",
",. c #63FAEA",
"<. c #6AFAE9",
"1. c #74FDE3",
"2. c #7CFDE6",
"3. c #7CF5ED",
"4. c #73FAEC",
"5. c #7DFDE9",
"6. c #84FEE6",
"7. c #8BFDE6",
"8. c #84F5ED",
"9. c #8EF6EE",
"0. c #84FDE9",
"q. c #8BFDEA",
"w. c #95FEE4",
"e. c #9CFDE6",
"r. c #9DF7E9",
"t. c #93FEEB",
"y. c #9AFEEA",
"u. c #A5F7EE",
"i. c #A5FDEA",
"p. c #ABFDEC",
"a. c #B4FCE7",
"s. c #BBFFE6",
"d. c #B4FDEC",
"f. c #BBFEEB",
"g. c #AEFDF0",
"h. c #B5FDF0",
"j. c #BBFEF2",
"k. c #C4FEED",
"l. c #C8FBEF",
"z. c #D4FBED",
"x. c #C3FCF2",
"c. c #CCFBF3",
"v. c #C8FCF9",
"b. c #D4FBF2",
"n. c #DAF9F2",
"m. c #D5FDFB",
"M. c #DDFDFC",
"N. c #E0FCF7",
"B. c #E3FEFB",
"V. c #E9FEFC",
/* pixels */
"$.$.#.%...%. . . .L L H H L L G G G g F i i C p p p B p p u p B v B 4 l 3 3 3 v v C C C V Z S & $ # ",
"$.#.-.&.=.%.%.%.%. . . . .J L L G g G V V V p B C B B B B p v B 0 n z 4 v 3 3 4 v B C C V S Z & * & ",
"#.$.-.-.*.&.&.&.| | } } } } } N G N r 0 0 e 0 0 0 e m m m n 9 8 m n 4 4 3 3 3 3 4 i i V 0 m m & ; & ",
"-.#.>.v.m.m.m.m.m.m.M.m.x.j.j.j.d.h.d.t.t.y.d.d.d.d.d.f.9.q.q.q.q.q.] Z Z Z Z Z o.p.p.p.d.j.u.$ $ & ",
"-.#.o.m.n.N.B.B.B.V.V.V.b.l.k.k.s.f.f.e.e.e.f.k.k.k.k.k.e.w.w.w.e.w.X.K Z F Z Z o.d.d.f.f.f.a.# $ $ ",
"-.#.@.m.n.M.N.B.B.M.N.N.c.f.f.f.a.f.a.e.e.e.s.s.s.f.f.f.w.w.7.7.7.q.X.K F F Z j o.d.d.d.s.f.a.$ $ ; ",
"&.&.>.M.B.B.9.3.4.4.4.<.<.4.1.8.q.0.0.0.0.7.s.s.a.7.7.7.! +.^ E E [ G F j j f f I ! ! ` f.s.a.. ; $ ",
"-.-.,.M.B.B.3.@.$.$.$.o.>.;.;.4.0.0.0.0.0.0.s.a.s.6.5.2.{ { [ G V V i Z t d U U U W R / f.s.d.. $ $ ",
"-.-.>.M.B.B.3.>.-.@.$.,.>.4.:.4.0.0.0.0.0.6.f.d.p.6.2.2.O.{ { G F V i i t d f U Y W W ( f.d.p.. # # ",
" . .} m.M.B.8.<.4.4.4.<.9.d.a.d.d.d.p.q.0.q.e.e.e.6.6.2.~ { { E E E E E E W ~ W W O.O.) y.e.9.. # # ",
"K V r M.B.B.8.<.4.3.4.4.u.z.n.n.n.z.k.t.q.q.t.7.7.6.2.6.X.W W W Y Y Y W W ~ +.+.O.O.+.;.7.0.6.. # # ",
"K V w M.V.B.8.<.<.4.4.4.u.n.n.n.b.n.c.q.q.q.q.q.q.2.2.2.! ~ Q Q Q Y Q Y Y ~ O.+.+.O.O.^ 7.0.6.. # # ",
"F V w c.b.c.8.4.4.9.r.r.d.n.n.l.h.j.p.y.w.t.2.6.6.' _ _ Q ^ Q Q Q Q ~ W W ~ O.^ O.O.~ +.7.6.6.. . . ",
"N m 8 x.k.x.q.4.5.a.z.z.z.z.z.j.9.y.y.y.y.y.1.1.' Q ^ ) ^ Q Q Q ^ Q O.O.O.O.~ ^ ^ ^ ^ ^ 7.6.6.+ # . ",
"K F 8 k.k.k.9.5.2.a.z.b.b.z.b.j.y.t.t.t.w.t.' _ ' Q ^ Q ! ^ ! Q Q W O.O.O.X.{ X.W ^ W ^ 0.6.0.# # . ",
"F e w k.k.k.q.5.2.i.d.d.h.j.j.p.t.t.t.2.6.2.) _ _ ^ ^ ^ ) ) ) ) ) / ;.;.;.+.O.^ O.J H [ >.;.$.* & & ",
"G e e l.k.k.q.2.5.q.q.q.t.t.t.t.t.t.8.+.^ ^ ^ ~ ^ ^ ^ ^ ' ' ' 6.6.6.6.6.7.2.:.' o.M A A N K K ; : = ",
"F F e x.k.k.q.0.0.q.t.t.t.t.t.t.t.t.0.! O.^ ^ ^ ^ ^ ~ ^ ' ' ' 6.7.0.7.6.6.2.:.:.o.A A V K F K - * = ",
"G m e f.d.j.q.5.5.q.t.t.q.0.0.0.0.0.5.o.o.! ^ ^ ~ ^ ^ ^ _ :.' 2.1.2.2.1.' :.+.;.[ A A A K V V : : * ",
"N F e i.p.i.0.5.0.q.t.q.5.<.<.<.<.;.;.;.;.+.^ ^ ^ ^ ~ ^ ^ ^ ~ ~ Q Q R R I T a q V c c x c c n & & O ",
"N F w p.p.i.0.0.5.q.q.q.5.<.;.<.<.<.;.;.;.;.^ Q ~ ^ ^ ^ +.O.~ ^ ~ Q R R I s d d i c b x x c B & & & ",
"F m w p.g.i.q.5.5.q.q.q.1.<.<.<.<.<.<.;.<.;.! ^ ~ ~ ~ W O.O.{ W ~ W W U R h s d V b x b l b z & = * ",
"g i 8 p.p.p.q.0.5.1.<.:.:.<.<.<.;.<.<.:.;.;.^ +.^ j j j j j j j j y y t t t 5 5 5 l b b B u V & = * ",
"0 0 8 p.g.p.0.5.5.1.:.;.;.<.:.:.<.<.:.<.<.;.+.^ +.j j j j j j y y a y t t u 5 5 v x l l B V 0 & = & ",
"m 0 8 i.i.i.0.2.2.:.:.:.:.:.;.:.:.;.:.:.;.;.^ ^ +.j j j j j g y y y y t y t 5 5 v c l z 4 u u & = & ",
"8 > * 0.7.6.:.:.) :.:._ :.:.:.;.~ W W T E E E T E E E k k k j k s s y t t p 5 5 5 v 5 4 S S V : , > ",
"> > - q.0.6._ :._ :.:._ :.;.:.;.~ W W k k k T k k E k k h h h s k s y y t u 5 5 5 u u 9 V V V : : , ",
"> : * q.6.6.1._ :._ _ _ ) ;.^ ^ ~ W W s k s s s k k E k s h h s T h y u t p 5 5 5 9 0 u V V m = : : ",
"> : * 7.7.6._ ) _ :.1.1.+.T k k k d k k k h d d d a d a s s s h h s t u t p i t i V V V V S V = ; : ",
": = * 7.0.6.:.) ) :.' 2.+.k k k k k k E E k d d d d d d h s s s s s g u p p i y u V V V V S S ; < : ",
"> : - 7.0.2._ ) ) _ 1.:.! k k k k T k k h k d d d d d a k g g s s h g u i t 9 u 0 S A V V V V : < < ",
"> : = ^ ~ ^ R E R E R R E T T k k T d a s d t t t t u u u t t a d s T [ W W W E J m A A A c B + @ o ",
": : = W W E k h T s T k k T k k T k k q a a 6 6 9 u u 2 u 2 t g d j E ^ X.Q ~ ~ [ A S A M M M $ + + ",
"> : = { W E E h T s f k T T T T k T k a q q 9 9 4 9 4 u 6 t t t j a E O.~ ~ ~ Q [ A S A M c M $ + + ",
"> < < g i g s s T s T T T T T U W Y R q f a 6 9 4 4 4 t d k k T E E R Q ~ ~ ~ ~ [ A A A A A M X O + ",
"1 < = i z 0 s f T f T f U f T R ~ ~ ^ P s s 6 6 u 4 2 2 W Y Q Y W R W ~ ~ ~ ~ O.[ M M M A A A + O + ",
"> < = u B n s U U f f f f f d U ^ ^ ^ P s s 6 4 2 4 2 2 W ~ Y Y Y Y Y Q Q Q ~ ~ [ A M M A A M O O O ",
"- = & 0 9 u a f q f U P f d f f T T h g a a 6 6 6 6 4 6 d f s U k d T T E k k k F M M A A A S = o @ ",
"+ + O B 5 n a a q U U P f f f d q g q y 7 y y 7 7 t 7 y t t t d d d f s d j t j i c M M S D S = = = ",
"+ + + 0 9 9 a a q f U U f f f f a 7 g y a 7 7 7 7 y y t t y t d d k d k k a y j i M M M D D S = = * ",
"X +   F u y q q a q h g s s s a w 8 M 8 m 8 9 9 4 v 5 5 u n 8 m F m m S V i p B n M c n S D K = @ & ",
"& + X E k k a q y y z 9 0 q 7 8 c , c c x x x x l l l l l c x c c x c x x x c x c z M A S D K @ @ @ ",
"* . + E T h a y y t 5 4 0 q a 7 c c c c x x x x l x l l z c c c c x x c c c c c c z c M S V V = @ @ ",
"* * + J h g a y y t 5 z 9 i i 0 c c c 8 c x c c z x z z z c c c c c c c c x c c z M M n H F F @ @ @ ",
"> : : 0 0 0 y y i B z c z z z c c c M c z z 9 i u i y i c c c c c c c c x c x x b K D H #.O.#.@ @ O ",
"> > : u m u y y i B M M c M c c c c c c z z 0 i 0 i i 7 M c M c c M c c z c c x B K K H O.#.o.O @ @ ",
": : : i 0 0 i y y B n M M M M M M n n c n z n 0 m 0 m m n n n z n z x c z c x z A V F F ..] ] o @ @ ",
"* * & & & o @ O & . X     .                 . . .     .       . . . . . o . o & o % @ o O o o o % % ",
"* $ ; ; $ ; ; # & # . . # . . . X X . . . . # # # . . . .     @ & O & % & % % # % ; % % % % % % % % ",
"; * $ ; ; # ; ; & # # # # * # # $ $ # # # # & # # # . . . .   @ & & & % % & ; ; ; ; ; ; % % ; % % & "
};
