/* XPM */
static char *out[] = {
/* columns rows colors chars-per-pixel */
"50 50 172 2 ",
"   c #DE4D0E",
".  c #DF510D",
"X  c #D84315",
"o  c #DC4B11",
"O  c #DC4719",
"+  c #DB4D1A",
"@  c #DE5111",
"#  c #DC531E",
"$  c #E44F03",
"%  c #E65200",
"&  c #E65D07",
"*  c #E85C03",
"=  c #E1540C",
"-  c #E4590A",
";  c #E74F15",
":  c #E74C19",
">  c #E85314",
",  c #ED5A14",
"<  c #E75019",
"1  c #EA6303",
"2  c #EF6C00",
"3  c #E7620A",
"4  c #E8640C",
"5  c #E76B0C",
"6  c #EA6D0B",
"7  c #F06F00",
"8  c #FE6F00",
"9  c #F1680E",
"0  c #EF7305",
"q  c #EC720F",
"w  c #F17400",
"e  c #FE7400",
"r  c #F57C01",
"t  c #FF7900",
"y  c #F17509",
"u  c #F27E0B",
"i  c #F66F1A",
"p  c #F27E12",
"a  c #DC5320",
"s  c #E24F21",
"d  c #E45123",
"f  c #ED5B2E",
"g  c #F15F2B",
"h  c #E36325",
"j  c #F7672E",
"k  c #E3742F",
"l  c #FA7426",
"z  c #FD782F",
"x  c #F36235",
"c  c #F9693B",
"v  c #E37430",
"b  c #FD7337",
"n  c #FE6F42",
"m  c #FF7043",
"M  c #F68206",
"N  c #F98600",
"B  c #FB8C00",
"V  c #F6850B",
"C  c #FB840F",
"Z  c #F88C0E",
"A  c #FF9201",
"S  c #FE9A02",
"D  c #FF9C0B",
"F  c #ED821F",
"G  c #F48215",
"H  c #FC8414",
"J  c #F78A13",
"K  c #F98E10",
"L  c #F2821D",
"P  c #F6891A",
"I  c #F79113",
"U  c #FA9415",
"Y  c #FD9A13",
"T  c #F7951C",
"R  c #F79A1E",
"E  c #FC9A19",
"W  c #FEA500",
"Q  c #FFAB01",
"!  c #FFA10F",
"~  c #FFB10D",
"^  c #FDA31E",
"/  c #FFB413",
"(  c #FDB01A",
")  c #FFB81D",
"_  c #F68D22",
"`  c #F78E2E",
"'  c #F79125",
"]  c #F99522",
"[  c #F69B24",
"{  c #F89823",
"}  c #FA9D2B",
"|  c #F99537",
" . c #F99638",
".. c #FFA625",
"X. c #FEA927",
"o. c #FAA42C",
"O. c #FDAB2C",
"+. c #FBB324",
"@. c #FFBC24",
"#. c #FDB42C",
"$. c #FBB92F",
"%. c #F6A432",
"&. c #FBA336",
"*. c #F6A835",
"=. c #FFAD32",
"-. c #FCA638",
";. c #F4AC3F",
":. c #FCAA3D",
">. c #F9B135",
",. c #FCB439",
"<. c #FFC301",
"1. c #FFCB25",
"2. c #FFD12E",
"3. c #FFCE36",
"4. c #FEC43D",
"5. c #FDCC3B",
"6. c #FFD332",
"7. c #FFD43E",
"8. c #F39B40",
"9. c #FEAC41",
"0. c #F8AD49",
"q. c #F4B147",
"w. c #FEB343",
"e. c #FFB64C",
"r. c #F7B948",
"t. c #FFBB4D",
"y. c #FFBE53",
"u. c #FDC643",
"i. c #FEC943",
"p. c #FEC44D",
"a. c #FFCC4C",
"s. c #FFD640",
"d. c #FFD843",
"f. c #FFD54F",
"g. c #FFDA48",
"h. c #FFC255",
"j. c #FBCB53",
"k. c #FFC15A",
"l. c #FFCD5B",
"z. c #FFD551",
"x. c #FFD955",
"c. c #FED35D",
"v. c #FEDC5D",
"b. c #FFE15E",
"n. c #FFC461",
"m. c #FFCD64",
"M. c #F8C56F",
"N. c #FDCC6C",
"B. c #FAD464",
"V. c #FEDB63",
"C. c #FFD26D",
"Z. c #FFDD6B",
"A. c #FFD573",
"S. c #FFDB74",
"D. c #FFD07E",
"F. c #FEDC7D",
"G. c #FFE363",
"H. c #FFE966",
"J. c #FFE46A",
"K. c #FFEA6B",
"L. c #FFE374",
"P. c #FFED73",
"I. c #FFE57E",
"U. c #FFEB7A",
"Y. c #FFF176",
"T. c #FFF47C",
"R. c #FFDF80",
"E. c #FFE081",
"W. c #FFF780",
"Q. c #FFF984",
"!. c #FFF689",
"~. c #FFFF8C",
/* pixels */
"2 2 2 2 2 2   X X X X X X X X = 7 7 p e.e.y.e.e.9.y 2 2 2 2 1   X X X X X X X X X X X a e.e.e.s.7.s.",
"2 2 2 7 2 2 o X X X X X X X X = 7 7 p 0.e.e.e.e.9.y 2 2 2 2 7 o X X X X X X X X X X X h e.e.e.7.s.s.",
"2 2 2 2 2 2   X X X X X X X o - q y H 9.9.w.w.w.9.q 2 2 2 7 2   o o X X X X X X X X X h e.e.e.5.5.5.",
"r r w 7 2 2 o X X X X X = * 1 L :.9.} J V J V V V r r r 7 7 7 1 1 1 . X X X X X X X X h e.e.9.G M u ",
"r r r 7 2 2   X X X X X = 2 7 _ e.e.:.r r r r r r r r r 7 2 2 2 2 2 . X X X X X X X X h e.e.:.y 2 2 ",
"r r r 7 2 2   X X X X X = 7 7 P e.e.:.r M r M r r M r M 7 2 2 2 0 2 @ + o X X X X X X h e.w.:.y 2 2 ",
"w 2 2 2 2 2 1 1 & & & & 2 w r ' e.e.e.&.&.&.&.-.&.-.&.&.,.,.,.j.j.j.r.;.;.F 3 3 & 3 & 6 J J J r w w ",
"2 2 2 2 2 2 2 2 7 7 7 7 w r r R e.e.e.e.t.t.t.e.t.t.e.e.f.z.z.K.Y.Y.v.f.f.[ 2 2 2 2 2 0 r r r r r M ",
"2 2 2 2 2 2 7 7 7 7 2 2 w r r { e.t.e.e.e.e.e.e.e.e.e.e.f.f.z.K.Y.Y.G.z.f.[ 0 2 2 2 2 7 r r r r r r ",
"2 2 2 2 2 2 w w w ] &. .&.&.&.w.a.j.a.a.a.p.=.=.O.E E E i.z.z.Y.Q.Q.Y.K.J.p. .&._ 7 2 2 0 0 2 - . . ",
"2 2 2 2 2 2 w r r &.t.t.t.e.e.p.f.f.f.f.f.i.X.....B B B i.f.z.W.~.~.W.Y.Y.l.t.e.&.2 2 2 2 2 1 X X X ",
"2 2 2 2 2 2 r r r -.e.e.e.e.e.h.f.f.f.f.f.f.X.....B B B i.z.z.T.~.~.T.Y.Y.c.e.e.&.2 2 2 2 2 2 X X X ",
"7 2 2 2 2 7 P ] { w.p.p.p.p.p.a.z.f.f.f.f.a.X.....Y U D X.$.$.V.P.K.J.G.J.l.e.e.&.w w w 2 2 1 o X X ",
"2 2 2 2 2 2 &.e.t.a.f.f.f.f.f.z.f.f.f.z.z.i.X.X...X.....A B A 4.f.f.z.f.f.p.e.e.&.r r w 2 2 1 X X X ",
"2 7 2 2 2 7  .e.t.a.f.f.f.z.z.z.f.f.f.f.f.a.......X.X.X.B N B 4.z.f.f.f.f.p.e.e.&.r r w 2 2 2 X X X ",
"w 7 w P _ _ 9.y.e.c.b.G.V.V.V.V.V.V.c.#.#.+.U U U U U U V N N ..+.O.O.O.O.o.} } R r r r 2 2 1 o X X ",
"r r M 9.e.e.e.e.t.Z.Y.Y.U.E.E.R.E.F.m.A B N r r r r r r r r r r r r M r r M r r r r r r 2 2 1 X X X ",
"r r V 9.e.e.e.t.e.J.Y.Y.I.E.E.R.E.R.m.Z B B r r r r r r r r r r r M r r r r r r r r r r 2 2 1 o X X ",
"T T { t.h.h.t.e.e.Z.U.U.L.A.A.A.A.A.k.M r r r r r r w r C J J T T T I K I M 0 r w 0 2 6 1 1 & X X X ",
"F.F.F.P.Y.P.t.9.9.N.R.R.m.9.9.9.9.9. .< : > r r r w 7 7 :.w.e.J.P.P.v.f.f.R 2 2 3 X X X X X X X X X ",
"E.E.E.U.Y.Y.h.9.9.C.E.R.n.9.9.9.9.9.| : : < r r r 2 2 2 9.e.t.J.Y.Y.G.z.f.[ 2 2 * X X X X X X X X X ",
"A.S.S.U.U.P.t.9.9.n.A.C.y. .&.&.&. .` ; ; > r w w 2 2 2 w.y.h.L.Y.Y.G.x.x.[ 7 2 3 X X X X X X o X X ",
"X.X.O.A.E.R.k.e.e.E B B r 7 2 2 7 2 7 2 7 2 7 7 2 2 2 0 V.Y.Y.Q.~.~.Q.Y.P.*.2 2 * X X X X X o 1 7 7 ",
"X.X.O.A.E.R.k.e.e.E B B r 2 2 2 7 7 2 2 7 2 1 7 2 2 2 2 V.P.Y.~.~.~.T.Y.Y.*.2 2 & X X X X X o 1 2 7 ",
"....X.C.S.A.k.e.e.T N B r 7 2 2 2 2 2 2 2 2 7 7 2 2 2 0 v.P.K.Q.~.Q.Y.P.K.%.2 2 & X X X X X   2 2 2 ",
"S S D O.=.=.w.t.e.G w 7 7 7 2 2 2 2 2 2 2 2 7 1 2 2 2 2 u.x.x.P.T.Y.B.h.y.' 2 2 & X X X X X X 1 2 2 ",
"A A S ^ ....w.e.e.G 2 2 2 2 2 2 2 2 2 2 2 2 2 7 2 2 2 2 u.f.f.K.Y.Y.l.t.e._ 2 2 & X X X X X o 1 2 2 ",
"S S S ..X...w.e.e.G 2 7 2 2 7 2 2 2 2 2 7 2 2 7 2 2 2 0 u.z.z.K.Y.Y.m.r.e._ 2 2 1 X X X X X ; 1 2 2 ",
"^ ..^ ....X.Y D D A B B B B B B B B B B B B 8 8 w S W W 3.s.s.g.g.g.X.V V r r r w w 0 2 $ $ % 2 2 2 ",
"..X.........D S S A A A B A A B B B A B B B 8 8 t W Q Q 3.s.s.s.s.s.^ r r r r r r r r 2 % % % 2 2 2 ",
"............D A A A A B A A A A A A A A A B e t t W W W 3.7.7.7.7.7.^ r r r r r r r r 0 % % % 7 2 2 ",
"X.....Z M V r r w w w w N A B D ^ ^ O.n.n.y.S S S A S S D ! ! ! ! D q @ . 4 r r r r r 7 % % * w w w ",
"......M r r w 7 7 2 7 7 r A A Y ....,.D.D.N.Q Q W A A A A A A A A A 4 X X 3 r r r r r 7 % % % r r r ",
"......M r r w 7 2 2 7 7 r B A D ..o.:.D.D.N.Q Q W S A A B A A A A B 4 X X & r r r r r 7 % % * w r r ",
"K Z Z r r r r w 7 w w w R i.i.p.j.l.B.F.F.C.Q Q W A A A 6 4 4 3 4 4 @ X X g l l i 1 1 1 * * 1 r r r ",
"r r r r r r r r r r r r >.P.Y.U.I.I.I.I.I.Z.Q Q W A A A o X X X X X X X X f n n j % % * 7 7 7 r r r ",
"r r r r r r r r r M r M >.Y.Y.U.E.E.E.I.E.Z.Q Q Q S A B ; X X X X X X X X f n m j % % % 7 7 7 w r r ",
"w w w r r r r r r >.,.,.c.Q.Q.T.Y.Y.Y.b.b.g.Q Q W A A A 3 - - - - -   X X f n n j % % * r r r N N N ",
"7 2 2 w r r r r r j.Y.Y.T.~.~.Q.Y.Y.H.d.s.3.Q Q W A A A 0 2 2 2 7 2 = X X f n n j % % 1 B B B B B B ",
"7 7 2 r r r r r r z.Y.Y.Q.~.~.Q.Y.Y.K.d.s.3.Q Q Q S A A w 2 2 2 2 7 = X X f n n j % % 1 B B B B B B ",
"2 2 2 r r r r r r j.Y.Y.W.~.~.T.H.H.b.6.2.1.Q Q W M r y 2 2 2 2 2 2 = X X d x x g , , 9 B B B B B B ",
"2 2 2 r r r r r M j.Y.Y.W.~.~.K.s.s.6.<.<.<.Q Q S @ X X 1 2 2 2 2 2 = X X X X X s n m z B B B B B B ",
"2 2 2 r r r r r r z.Y.Y.W.~.~.K.s.s.6.<.<.<.Q Q S @ X X 1 2 2 2 2 2 = X X X X X d n n z B B B B B B ",
"2 0 0 r r r r w w j.Y.Y.W.!.!.V.$.$.+.Q Q Q @.@.>.F v k r M r 2 1 1 o X X X X X d n m b H H C N N B ",
"r r r r r r 0 2 2 j.Y.Y.I.E.E.q.0 0 0 2 5 G I.I.I.U.P.P./ W W 1 % %   X X X X X d n n n m m b r r r ",
"r r r r r r 0 2 2 j.Y.Y.U.E.R.0.2 2 2 2 2 p I.E.U.Y.Y.P./ Q Q 2 % % o X X X X X s n m n m m b u r r ",
"r r r r w r 2 1 3 q.B.B.M.M.M.8.2 1 1 2 2 u B.Z.J.P.Y.P.@.) / 0 1 1 $ X X X X X s c c n m m b r r r ",
"r r r w 0 2 . X o # a # # a a + X X @ 2 2 0 ~ ~ ) J.E.I.S.L.Z.( W S 4 X X X X X X O O d n m b y r r ",
"r r r 2 2 2   X X X X X X X X X X X o 2 2 w W Q / Z.E.E.U.E.I.) Q W 6 X X X X X X X X s n m b u r r ",
"r r r 7 2 2   X X X X X X X X X X X o 1 2 w Q Q / J.I.I.U.E.I.) W Q 6 X X X X X X X X a n m b u r r "
};
