/* XPM */
static char *out[] = {
/* columns rows colors chars-per-pixel */
"50 50 47 1 ",
"  c #3F711E",
". c #40731E",
"X c #427B1E",
"o c #427422",
"O c #457C23",
"+ c #487F27",
"@ c #45742B",
"# c #477A2B",
"$ c #487C2D",
"% c #44851F",
"& c #45881F",
"* c #458422",
"= c #488326",
"- c #468920",
"; c #4A8D24",
": c #4B832C",
"> c #4D8A2C",
", c #508E2E",
"< c #4D9325",
"1 c #4F9329",
"2 c #509626",
"3 c #529B25",
"4 c #51932B",
"5 c #549C2B",
"6 c #4D8531",
"7 c #4F8833",
"8 c #518C33",
"9 c #559334",
"0 c #589736",
"q c #569934",
"w c #599C35",
"e c #569638",
"r c #589739",
"t c #5A9E39",
"y c #57A22D",
"u c #58A22E",
"i c #5BA335",
"p c #5EAB35",
"a c #5CA23A",
"s c #5FAA39",
"d c #60A73D",
"f c #61AA3D",
"g c #65B23E",
"h c #68B53F",
"j c #66B440",
"k c #68B640",
"l c #69BA42",
/* pixels */
"atto  ##$667:*-O@@#332878233333ita533iaj9*%*$$:333",
"taqO  ##$677>--O@@O352778233333iia523ijje-%*$#:<33",
"aat=OX##@688>-&*###12267>2333y3wt0533usaq--*##=<33",
"hkhfff=  8ja1-&;eq9#@$@@@777ggh=oO,tie887>7=*-*---",
"llllhl>  qdfq%-1ate@@@@@@768ghl;  >at967777>*&--&&",
"lllllh= .qdf5--1tte@@@@@@676ghl=  >aa9887776----&&",
"7679ee2;;tajssp5O+:eq9@@@$$$glj>##qjja00q255it9X  ",
"@@@678233rjsjlhw. Osft@@@@@@fll7$#allfatu235ssa.  ",
"@@@777133iffgklq. Odjt@@@@@@fll7$$tllfta5325sfto  ",
"@#$rtrfggiaatqee990jjdo  #**ghhgdd08,9ttq:$>taw-%X",
"$$$asjhllaaae679tiskjf   %&&hlllll8@@7td9@@6taq-&&",
"$$$affjllstae77ettsllf  .%&&glllll9@@8tt9@@$tat-&&",
"$$:dggpiiqe9,1>>,>4ffsoooO==pjjjjj978ifga888aar+*O",
"$$6fll2&&>77133;  Otae@@@##$assjjfattghljfdjaja$@@",
"$$$flh2&->77,33;..Otaq@@@$#$tjddfdiitfhhjjjtjaa#@@",
"788q0wq559ee911= .Ota0999eerrrr884ifffddt98edft#oo",
"atwO .sljjdde77:  #ttsklllll977o .whlp331@@6djeo  ",
"aawo .illjddt67#  Ottiklllll887o .qhhp321@@$dsto o",
"wuwX Xslljsje76#XXXqqqffffffe9e===qff522>@@:awq=OO",
"333-&-sllllka$O>33;..X&-;$:$flllhh9##:87>$$$--;add",
"333---slllllt$$>33;...-%*###glllhlq@@$776#$#%&;sfd",
"<2<<->sgjlllt666y32...-*-:66gllhgg>@@689866>;;>sfa",
"$$:tddatajlljdaghlf$$$777sffkll<&&   ellklljfaa333",
"$$$ajdaaajlljffgllf:$$778affkll<&&X  qlllllksjs233",
"#$6taaaaaggggsfsgga$$$779djjjjj>;;%  qjkkhjjdsa551",
"$#$--;skl3;;5ffqOOO$$:tttjkl$66shg>  4sjsy3uaaq:::",
"$$#*&-sll1&&1ff8  o#$$taakll6$$jlk1  4fdi335tae6#$",
"#$$*&-sll1&%1ff7  o$$:taakll6$$slk9  7ffs333ate$#$",
"22<X Oshl9#:OOOX**-tat--<asa$$$tddw<<qddi33yjjjaaa",
"332X  pll7#$@  X%-;ssa---ett$$$tjdu33ijdi33yllkjff",
"32<OXosll7$$O .X--1asa--;qtt::$tasy33isdi33yjljdad",
"XXOissfff866O .>ssa6$:att997sfs9<<uggsaaa,>>==:$$6",
"  ofllffj877$..,lld@@$dfd877jkj<--ihlfaae77:   @@@",
"  ogllffj878$..,lld$@$dda878jll1&&ullsatq77$   @@@",
"oo#iff986$$$,wwwtte$$$777eeesss>OO,atawate99>78qtr",
"@@@0it$@@$$$9lli777776$@$rtttat$@@6779aaataaatslll",
"@@@0it$@@$$$0lld777776@@$ratatt$@@$77raaaaaataalll",
"988>=>899$$$9ffw$66ee8999787777:>=;;>==>>55ifgfttr",
"daa#..eda7$$8jf0$$6ttaffa$$$@@@<33-&&X  O33ullg877",
"jda#..edj7$@8fd0@$6tatfda6$$@@@<33-&&   X33ullj877",
"wwwX..4dt:$#6rr8@@:qq5gds777#@@-;;;==-OO*<-4ggf766",
"&%%...<33:$$$$$$@@@&-;lljjdd6$$o  +77133;..+ta0$$$",
"&&%...&33=$$$$$@@@O*&;lljjad$$$o  $77123;..+ti0:$$",
"%%Xo..452>>:>==#@o@=*-sjajjj766$==69941>;..+99q$$@",
"  .O$$9ti533233*   #$$778jllaatdsdddd8$$$$$+&&%@@@",
"  .@$$9tt533333;  o#$$778jllaaaddddjd9$$$$$+&&%#@@",
"..o@#$9dd553333;OO#6668e8jllsaaddfatt9$$$6:=*%*@@@",
"@@@@@@0dftttittttrtjjjjjjdjjjlkaaa8$$6769aae@@@#@$",
"@@@@@@9ddattattataalllllkfjjjklsta7$$677edfr$@@$$$",
"@@@@@@rdddtataaaatslllllkjddkkksta7$$6778ddr@@@$$@"
};
