/* XPM */
static char *out[] = {
/* columns rows colors chars-per-pixel */
"50 50 118 2 ",
"   c #251909",
".  c #2B1E0D",
"X  c #2F200E",
"o  c #31220F",
"O  c #3B260F",
"+  c #342412",
"@  c #392713",
"#  c #3F2A15",
"$  c #421E0B",
"%  c #44220D",
"&  c #4C2713",
"*  c #412A13",
"=  c #522A17",
"-  c #542D19",
";  c #543018",
":  c #5F371F",
">  c #4D3622",
",  c #4F3825",
"<  c #513722",
"1  c #593D28",
"2  c #663B22",
"3  c #6F3A2B",
"4  c #703C2C",
"5  c #6D442B",
"6  c #70462C",
"7  c #6B4131",
"8  c #684D37",
"9  c #734731",
"0  c #714E37",
"q  c #7A4E33",
"w  c #7E4638",
"e  c #774C3B",
"r  c #794D3C",
"t  c #7E5036",
"y  c #7C563F",
"u  c #7C5141",
"i  c #7A5A44",
"p  c #6D4D7E",
"a  c #73527B",
"s  c #854939",
"d  c #8A4C3D",
"f  c #815335",
"g  c #82543A",
"h  c #88573B",
"j  c #8C5D3D",
"k  c #955E3F",
"l  c #96613F",
"z  c #835C44",
"x  c #8F5E43",
"c  c #935E42",
"v  c #84614C",
"b  c #956141",
"n  c #9C6346",
"m  c #9D674A",
"M  c #9C694C",
"N  c #9F6C50",
"B  c #9D735C",
"V  c #A26A47",
"C  c #A16A4C",
"Z  c #A16F5F",
"A  c #A77256",
"S  c #AC7453",
"D  c #A67559",
"F  c #AC765A",
"G  c #A4795F",
"H  c #AC795F",
"J  c #976866",
"K  c #9D7067",
"L  c #9B726B",
"P  c #A27360",
"I  c #AF7664",
"U  c #A77A62",
"Y  c #AA7D66",
"T  c #A7796F",
"R  c #AC7E6A",
"E  c #B07763",
"W  c #B47B64",
"Q  c #B57C69",
"!  c #A27376",
"~  c #A77870",
"^  c #A87A75",
"/  c #AD806C",
"(  c #B4846C",
")  c #BD876C",
"_  c #B6896C",
"`  c #BC896C",
"'  c #AA8176",
"]  c #AF8179",
"[  c #B68272",
"{  c #BA8770",
"}  c #BC8C72",
"|  c #BF8F7A",
" . c #BF9075",
".. c #BB927E",
"X. c #C4947E",
"o. c #523D88",
"O. c #5A4385",
"+. c #664C83",
"@. c #6A4E80",
"#. c #6E5181",
"$. c #9E90B3",
"%. c #9D91B9",
"&. c #C59680",
"*. c #C19884",
"=. c #D6C3B7",
"-. c #D9C7BB",
";. c #B9AEC5",
":. c #BBB3CF",
">. c #DECFC5",
",. c #E7DBD4",
"<. c #EADED8",
"1. c #EFE6E1",
"2. c #F0E6E2",
"3. c #F3EEEB",
"4. c #F6F1EE",
"5. c #F7F4F1",
"6. c #F9F5F2",
"7. c #FFFFFE",
/* pixels */
"X X X X X X . . . o . . . X . . . + . .   .   .                           . . . . . . . . . . . . . ",
"o X X X X X . . . . . . X X + X + . .   .   . .                 .         . . . . . . . . . . . . . ",
". X X X X X . . . . . . . X X X + . . . . .   .                     .     . . . . . . .     . .   . ",
"o X X X X X . . . . . . . X X X . . . . .       .                       .   . . . . . . . . . . . . ",
"X X X X X X   X . . . . . o . o + . . . .   . .                           . . . . . . . . . . . . . ",
"X X X X X X   X . . . . . o o . . . . .   . . .                   . .     . . . . . . . . . . . . . ",
"  X . . X   X X . . . . . . . . . . . . + . X X o O O O O O   . @ @ @ @ + o . . . . . . . .         ",
". X .   X . X   . . . . . . . . . . + + + + + + + O * % * * * O # # # # # o . . . . . . . . .     . ",
". . . . . . . X X . . . . . . . . . . o + + + + O # * * * * * * # # # # # o . . . . . . .   . . . . ",
". . . . . . X     . . . .   . . . . . + + + + + + O * * * * * * # # # # # o   X . . . .   .       . ",
". . . X . . . . . . . . X X X X . . X o + + @ + + * * * * * * O # # # # # + X X . . . . . .   .   . ",
". . . . . . X X X . . .   X X X X X . + + + @ @ @ * * * * * * * # # # # * + X X . . . .   . . . .   ",
". . . . . X 8 y i i i i i i i i i i i v v v v v v z z v v v v v i v v v v t 0 0 i 0 0 1 o o o . . . ",
"  X . . . X B _ _ _ _ _ _ _  ._  . . .*.X.X.&.&.X.) X.` ` ` ) X. .`  . .` _ F D B B D i @ + + + + + ",
"X . . . . o A _ _ _ _ _ _  . .} }  . .*.&.&.X.X.X.} } } } } ) `  . .`  . ./ F F F F / f @ + + + + + ",
"X   . . . o B ( _ _ _ _ _  .}  .} ` X.&.&.&.&.X.X.} } } } } } `  . . .` ` / F F F F F y @ + + + + + ",
"X   X   X X B _ _ _ _ _ _ }  .` } }  .X.&.&.&.&.X.X.} } X.} { }  .}  .}  ./ F F F F F g @ + + + + + ",
"X X X X X X B _ _ _ _ _ _ }  . .}  .X.X.&.X.X.&.X.` } } ) ) } } } ..}  .` W F F F F F z @ + @ + @ + ",
"> > > > > > G _ _ ( _ _ _ _ ` _ _ _ _  .| | | | } ( ( ( ( ( ( } } } } }  .Y S A A A A z < > , ; > > ",
"/ L / U U / / ( ( ( ( _ / / Y Y U / / / / ' / / R B B B B B B ( } { } { _ D M M M M M M M M M M M M ",
"/ / / / / U ( ( ( ( ( ( / Y Y Y / H / / / / / / R B B B B B B ( { { { | { D M M M M M M M M M M M M ",
"B / / G U / ( ( ( ( ( ( / Y Y Y / / / / / / / / R B B B B B B Q } { { { { D M M M M M M M M M M M M ",
"D / G / / U ( ( ( ( ( ( / Y Y Y G / / / / / / ' T B B B B B B ( } { } [ { G M M M M M M M M M M M M ",
"/ / D / U / / ( ( ( ( ( / Y Y Y / G H / / / / / R B B B B B B [ { } } } } D M M M M M M M M M M M M ",
"/ / F / G / ....*.*.*.*.' L L L K K ~ R / / Q E R P P P P B U ~ ~ ~ ^ ^ ^ / Y / / / / / M M M M M M ",
"/ / ( ( ( _ ,.4.4.3.3.3.$.O.O.O.O.o.a W Q E Q Q Q ( { [ { [ ' #.O.O.O.O.O.;.3.3.3.3.1.=./ / / D / / ",
"/ _ / ( ( [ 1.7.7.7.7.7.%.o.o.o.o.o.p W Q Q Q Q Q { } { } } [ +.o.o.o.o.O.:.7.7.6.7.6.>./ / D / G / ",
"_ / _ _ ( } 2.7.7.7.7.7.%.o.o.o.o.o.p Q Q Q Q Q Q ) } { } } [ +.o.o.o.o.O.:.7.7.7.7.6.-./ / / / / G ",
"( ( ( ( ( { 1.7.7.7.7.7.%.o.o.o.o.o.p Q Q Q Q W Q { { } { } [ +.o.o.o.o.o.:.7.7.7.7.7.>./ / / / / / ",
"( ( ( ( ( { 1.7.7.7.7.7.%.o.o.o.o.o.p Q Q Q W W Q { { { } { ' +.o.o.o.o.o.:.7.7.7.7.7.>./ / / B G F ",
"/ ( Q ( R ( <.6.5.5.6.6.$.O.o.O.O.O.p E I E E E Q ( ( ( ( ( R @.O.o.O.O.O.;.4.5.5.4.5.-./ B G G G G ",
"C M N C C N } *.&.&.&.*.^ ! ! ! ! ! J w r w r r r r y r r r u K ~ ~ ~ T T / ( _ _ _ ( D j j h j j j ",
"n n n n n n F W W W W W W Q Q Q [ [ Z 7 7 4 7 7 7 7 7 7 3 1 u U ) ) ) ) ) S V V V V V l f f f f f t ",
"n n n n n n F W W W W W W X.{ { [ ] P 4 7 7 1 7 7 4 7 7 8 4 4 T ) ) } ) ) S V V V V V l f f f f f t ",
"c n n n n V F E W W W W Q [ Q [ [ Q K 7 7 4 7 7 1 3 7 7 7 7 4 I ) ) ) X.) V V V V V V l f f f f t f ",
"n n n n n n F W E E W F Q [ [ [ [ Q G 7 7 7 7 7 7 8 4 7 7 4 4 I ) ) ) ) X.S V V V V V l f f f f f f ",
"n n m m c C I W W W W W Q ] [ [ [ [ P 4 7 7 3 5 7 7 3 3 7 4 7 ~ ) ) X.W X.V V V V V V l f f f f f t ",
"c c c c c c C C C C C C x 4 4 e 7 7 9 w w w w s w u w w w w w w 6 6 9 q 6 f l k l b b j f f f f g t ",
"x x x x c x c c k k c k 2 @ @ $ $ % = d s d d d z d d d z d w = $ % $ $ $ 6 k j j l j h g f f f g t ",
"c x x c x c c c k k c c 2 % % $ O % - d d d d d d d d d d d s = % % % & & 6 k j j j k h g f f f g t ",
"x x x x c k k l k k k k 2 $ % % $ $ = s d d d d d d d d d d s = % % & % % 6 j b l j j j t t g g g t ",
"x c x c x k k l k c k k 2 $ $ % O % = d d d d d d d d d d d s = % % % % % 6 j j j j j h g g f y g t ",
"c x c c c x l l n k k k 2 $ % % % % = d d d d d d d d d d d s = % % % % % 6 k j l j j j g g g f g g ",
"z g g g g g f f h h h f : $ O % % % & 2 4 4 4 3 3 4 4 4 4 4 3 & % & % % % 6 h j h j j g t t t t w q ",
"6 6 6 9 6 6 5 5 5 5 5 5 ; O $ $ % % $ $ $ $ $ $ % % % % & % % $ % % % & % 3 y g g h g t q q q q q q ",
"5 6 5 3 6 5 5 5 5 5 5 5 ; % O % % % $ $ $ $ $ $ $ % % % % % % & % % % % % 5 g g g g g t q q q t q q ",
"6 6 5 5 5 6 5 5 5 5 5 5 ; $ $ % $ % $ $ $ $ $ $ $ % % & & $ $ & % % % % % 5 g g h y g t q q q q q q ",
"5 5 5 9 5 5 5 5 2 5 5 2 ; O % $ $ $ $ $ $ $ $ $ $ % % % % % % % & % % % * 5 g g h g f t q q q q q q ",
"6 5 5 6 5 6 5 5 5 5 5 5 = O O $ % % O $ $ $ $ $ $ % % % % % % % % % % % % 5 g g g h g g q q q q q q ",
"5 9 6 6 9 5 5 5 5 5 5 5 - % % % % % % $ $ $ $ $ $ $ % & % & % % % % % & & 4 f g g f g q q q q q q q "
};
