/* XPM */
static char *out[] = {
/* columns rows colors chars-per-pixel */
"50 50 104 2 ",
"   c #4C4C4C",
".  c gray30",
"X  c #4E4E4E",
"o  c gray31",
"O  c #515151",
"+  c gray32",
"@  c #535353",
"#  c gray33",
"$  c #555555",
"%  c #565656",
"&  c gray34",
"*  c #585858",
"=  c gray35",
"-  c #5A5A5A",
";  c #5B5B5B",
":  c gray36",
">  c #5D5D5D",
",  c gray37",
"<  c #5F5F5F",
"1  c #606060",
"2  c gray38",
"3  c #626262",
"4  c gray39",
"5  c #646464",
"6  c #656565",
"7  c gray40",
"8  c #676767",
"9  c #686868",
"0  c DimGray",
"q  c #6A6A6A",
"w  c gray42",
"e  c #6C6C6C",
"r  c #6D6D6D",
"t  c gray43",
"y  c #6F6F6F",
"u  c gray44",
"i  c #717171",
"p  c #727272",
"a  c gray45",
"s  c #747474",
"d  c gray46",
"f  c #767676",
"g  c #777777",
"h  c gray47",
"j  c #797979",
"k  c gray48",
"l  c #7B7B7B",
"z  c #7C7C7C",
"x  c gray49",
"c  c #7E7E7E",
"v  c gray50",
"b  c #808080",
"n  c #818181",
"m  c gray51",
"M  c #838383",
"N  c #848484",
"B  c gray52",
"V  c #868686",
"C  c gray53",
"Z  c #888888",
"A  c #898989",
"S  c gray54",
"D  c #8B8B8B",
"F  c gray55",
"G  c #8D8D8D",
"H  c #8E8E8E",
"J  c gray56",
"K  c #909090",
"L  c gray57",
"P  c #929292",
"I  c #939393",
"U  c gray58",
"Y  c #959595",
"T  c gray59",
"R  c #979797",
"E  c #989898",
"W  c gray60",
"Q  c #9A9A9A",
"!  c #9B9B9B",
"~  c gray61",
"^  c #9D9D9D",
"/  c gray62",
"(  c #9F9F9F",
")  c #A0A0A0",
"_  c gray63",
"`  c #A2A2A2",
"'  c gray64",
"]  c #A4A4A4",
"[  c #A5A5A5",
"{  c gray65",
"}  c #A7A7A7",
"|  c gray66",
" . c #A9A9A9",
".. c #AAAAAA",
"X. c gray67",
"o. c #ACACAC",
"O. c gray68",
"+. c #AEAEAE",
"@. c #AFAFAF",
"#. c gray69",
"$. c #B7B7B7",
"%. c gray72",
"&. c gray74",
"*. c gray",
/* pixels */
"c c j q 6 6 4 3 6 Q #.#.O. . .U v v j u u a  . .| ] ` ` n c x r 6 6 ; + + % - ; < e r j { {  .+.#.#.",
"c c h q 6 6 4 3 6 Q #.#.O. . .U v v j u u a  . .| ] ` ` n c x r 6 6 ; + + % - ; < e r j { {  .+.#.#.",
"v v k 0 5 5 r y i ^ @.@. .' ' H l k k k k x ' ' ' ] ] ] N b v a e e < # # * ; : 4 d f v / / ) ] { } ",
"V V v q 3 3 G W Q } O.o.( J J x r e z ! ~ ! H H U { O.o.G A A V B N u , , 1 2 2 y U R I C C Z A A A ",
"A A n q 3 3 E  . .X.o.X.~ Z Z g 8 8 x |  .{ V V J } #.@.K G G H H G f 3 3 4 4 4 s ) ' ! v v v v v v ",
"A A n q 3 3 E  . .X.o...~ Z C f 8 8 x |  .{ V V J } #.@.K G G H H G f 2 3 3 4 4 s ) ' ! v v v v v v ",
"q q i A L L C B B C Z Z N b b w & & p |  .{ J J H D S S m n n B C V t * * < 4 4 8 u i h L L H B m m ",
"3 3 r I _ _ m k k c v v v v v 9 + + y |  .{ P P H M v v v v v M B N w % % > 5 6 4 3 3 t R R I C M M ",
"3 3 r L / / m l l c v v v c c 9 + + y { } [ L L H M b b v v v m M m q % % < 7 8 6 3 3 r U Y L N n n ",
"3 3 6 y a p S P L M c c k d d 5 $ $ 7 Z A A B B V S D D v v v e 4 3 > & & h P I B 5 3 6 i u e 4 1 1 ",
"3 3 3 3 3 3 H ~ Q B c c h i i 4 % % 4 x v c n n N F J J v v v 5 % % & * & m ' { P 6 3 3 3 3 , $ @ @ ",
"4 4 4 4 4 4 G ! W N x x g u u 3 % % 4 c v c n n N D H H c c c 5 * & * = = M ' [ P 6 3 3 3 3 , % @ @ ",
"j j l v b b c x x i e e 0 5 5 : % % 1 a s f b b x f a a e e e d k k g s s B I U A y t w 3 3 2 < , , ",
"W W ~ {  . .9 % % % % % % % % % % % ; 8 9 0 v v d - O O @ % % F  . ._ Q Q D v v v v v h 3 3 6 e y y ",
"W W ~ {  . .9 % % % % % % % % % % % ; 8 9 0 v v d - O O @ % % F  . ._ Q Q D v v v v v h 3 3 6 e y y ",
"] ] ) T P P t 4 6 j n n v z z c n b g 5 5 5 q q 8 < : : V D S Q ' ` R F F A C C N v v z s s p r w w ",
"#.#.{ C z z s p s ~ O.O.| _ _ } o.o.U 4 3 1 % % - 5 9 8 $.*.&. ./ / G v v C H J A b v n Z C b t 9 9 ",
"#.@.[ C z z s p s ~ +.+. .` ` } o.o.I 4 3 1 % % - 5 9 8 %.*.*. ./ ^ G v v C J J A b v n C C b t 9 9 ",
"~ ~ T B v v y w r R } } ) R R W ! Q D e e q = = : 4 7 6 Q / / R I I D M M Z F F A B B m j j s 8 4 4 ",
"h h k M C C 8 , 1 D ~ ! K M M v l k l c c l 2 2 2 3 3 3 4 4 4 d v v C G G S Z C S K L B , < , ; - ; ",
"g g k N Z Z 8 , 1 D ~ ~ K M M c k k l c c l 3 3 3 3 3 3 3 3 3 d v v C G G S Z Z S L P V , , > ; ; ; ",
"f f j m B B 8 < 2 V Y Y S x x k f f g k k g 6 6 6 8 9 9 6 6 6 s z x M S S C B B Z D D n > > > ; ; ; ",
"j j j g g g s s p : % % O . . .     o % % - A A J _ } | N n n 0 > > 1 4 3 q p p 0 # @ $ : > < 6 8 8 ",
"j j j g g g s s p : % % O . . .     o % % - A A J _ } | N n n 0 > > 1 4 3 q p p 0 # @ $ : > < 6 8 8 ",
"s s g c n n v v x e 8 7 1 * * # o o & 8 9 w D D L ` } | D S A a 8 8 6 6 5 u k k p 1 < , , , 1 5 7 7 ",
"8 8 i I ( ( / / / W E R A f f 9 - = t W Q W U U E ]  . ._ _ ) J B B f q q b P I G m n k 4 4 4 3 4 4 ",
"3 3 y W  . . . . . . .| R n n t > > g X.o. .R R Q [  . . . . .W K K x e e B Q ~ R H G M 6 6 5 3 3 3 ",
"3 3 y W | |  . . .| | } R n n t > > g ....| T T Q [  . . . . .E J J x e w B W Q T G F m 6 6 5 3 2 2 ",
"3 3 9 l m m Z D S N m M V D D e + O = w w e d d v /  . . . .| m u u d z z 7 # @ * 5 6 a ' ' ' ' ' ' ",
"3 3 8 j v v V Z V n v v B G G r + O & 6 7 8 p p x /  . . . .| n e e d v c 3 o X + 2 3 p  . . . . . .",
"2 2 8 h c c B Z V n v v N F F r + O & 6 7 8 p p z ~ | | | | } b e e d c c 3 X . @ 3 4 p  . . . .| | ",
"& & - 4 8 8 n Z Z n v c a 6 6 1 : : , 4 4 5 e e t a d s S G G v h g w 1 1 > - - 0 J L T  . .' U K J ",
"+ + # = ; ; c A Z m v c w O O = 3 3 3 3 3 2 q q 7 , ; = l v v v v c 7 O O = 2 2 s {  . . . .) S M M ",
"+ + # = ; ; c Z Z n v c q O O = 4 4 4 4 4 3 q q 8 , ; = k c c v v c 7 O O - 3 3 d {  . . .| ) S M M ",
"# # $ ; , , q t t e e w 4 = = t M M B A S C f f a q 8 7 7 8 7 e u u 5 = = s Z S F Y T R ~ ~ Y B b b ",
"% % & , 2 2 * % % * ; ; > 3 3 m _ ` { +.+...M M v f s i # O O : 3 3 3 3 2 F +.#.' C B C L P F m v v ",
"% % * , 2 2 * % % * - - > 3 3 m _ ` { +.+...M M v f s p # O O : 3 3 3 3 2 F +.#.' C B C P P G m c c ",
"; ; 4 l M M x l l l z l r > > d F G T { { ] Z Z S K P P N m m e 3 3 3 3 2 D ..X.) V N B S S m u q 0 ",
"3 3 e K ^ ^ W E R T T Y z = = w x c S ` ' _ J J U ] ....| } { j 3 3 3 3 2 A |  ./ B N N N N l 3 ; ; ",
"3 3 r L / / Q W W R R T z = = q x c S _ ' ) J J Y [ X.X. . .| k 3 3 3 3 2 A |  ./ B N N N N k 2 ; ; ",
"s s z T ) ) R Y Y I P L l > > 9 d f x D F S M M Z T ! ! / / / z q 0 6 3 2 m ! ~ Y B N N m m h 1 = = ",
"( ( _ ] [ [ I H H A Z Z j 8 8 5 3 3 > @ # # 9 9 q a f f N V V b x x t 3 2 u l z c C C V v v d > % % ",
"` ` ' [ { { I H G Z Z C h 9 9 5 2 2 ; O O O 7 7 9 i s s m N N b c c y 3 2 t k k x C Z V v v d > % % ",
"Y Y T ^ ) ) Y L L Z B N h q q 9 8 8 3 - - ; 4 4 7 e y y k k k z x x t 3 3 r f g h z z l f f y , = = ",
"7 7 r M F F ^ ` ) C v v h s a j v v v c c k > > > , < < : : : a v v y 3 3 8 w e 6 & % % % % = 3 6 6 ",
"7 7 r N G G ^ ` ) C v v h s s j v v v c c k > > > < 1 1 : : : a v c y 3 3 8 w e 7 & % % % % = 2 6 6 ",
"r r u l v v I E R V b b l f f d d d f h j g e e w 8 7 7 4 4 4 t s a w 4 4 t g h s 0 9 5 = * : 8 q q ",
"b b k 6 , , g v v M B B n z z e , > 2 q w t T T K v j j h h h 4 * * 1 8 8 m E W W Q Q F < < 6 f l l ",
"V V z , # # y g g M Z Z M v v q % % ; 7 8 w ' ' ! V v v v v v 1 O O > q 0 A _ ' ] |  .W 2 3 9 l n n ",
"V V z , # # y g h M Z Z M v v q % % ; 7 8 q ' ' ! V v v v v v 1 O O > q 0 A _ ' ] |  .W 2 3 9 l n n "
};
